# xmcd
#
# Track frame offsets:
# 150
# 10686
# 21566
# 36351
# 46943
# 64634
# 77143
# 89203
# 107458
# 122646
# 136406
# 154757
# 171061
# 180404
# 195035
# 210993
# 224119
# 235800
# 253066
# 268437
# 280356
# 291471
# 302684
# 313083
# 322838
# 342130
#
# Disc length: 4732 seconds
#
#
# Revision: 0
# Processed by: cddbd v1.5.1PL0 Copyright (c) Steve Scherf et al.
# Submitted via: FreeRIP 2.941 
#
DISCID=7d127a1a
DTITLE=SOM LIVRE - COUNTRY INTERNACIONAL 2004
DYEAR=2004
DGENRE=Country
TTITLE0=Ney porter - Johnny James
TTITLE1=AGANIST THE GRAM - GARTN BROOKS
TTITLE2=COTTON - BYE JOE
TTITLE3=JAMADALYA - LARRY LOWMAN
TTITLE4=STADING GUTSNG THE FR - GRATIN BROOKS
TTITLE5=THESE HOOTS ARE - BILLY RAY CYEUS
TTITLE6=CALLIN BOTON - GARTN BROOKS
TTITLE7=CHATTAHOOCHEE - ALAN JACKSON
TTITLE8=IF YOU CANT GIVE ME LOVE - CINDY RAY
TTITLE9=MRS ROBSON - JAKS JAMES
TTITLE10=AMWY MAN OF MINE - SHAINA TWAIN
TTITLE11=OLD POP IN AN DAK - REDNEX
TTITLE12=WAILON JENINGS - GOOD OLD BOYS
TTITLE13=JAMBALAYA - JOHN FOGERTI
TTITLE14=THE GAMBLER - KENNY ROFERS
TTITLE15=COTTON FIELDS - CREEDENCE
TTITLE16=MENFHIS - JOHNY RIVERS
TTITLE17=CENTERFIELD - JOHN FOGERTY
TTITLE18=BIEFORE YOU BE ACUSE ME - CREEDENCE
TTITLE19=REUDEN JAMES - KENNY ROFERS
TTITLE20=ON, LONESOMS ME - DON GERSONS
TTITLE21=BLUE RIEDG - JOHN FOGERTY
TTITLE22=HELLO MARY LOU - RIKY NELSON
TTITLE23=DONT LOOK KNOW - CREEDENCE
TTITLE24=COWARD OF TEHE COWNTRY
TTITLE25=BIG TRAIN - JOHN FOGERTY
EXTD=
EXTT0=
EXTT1=
EXTT2=
EXTT3=
EXTT4=
EXTT5=
EXTT6=
EXTT7=
EXTT8=
EXTT9=
EXTT10=
EXTT11=
EXTT12=
EXTT13=
EXTT14=
EXTT15=
EXTT16=
EXTT17=
EXTT18=
EXTT19=
EXTT20=
EXTT21=
EXTT22=
EXTT23=
EXTT24=
EXTT25=
PLAYORDER=
